<mxfile host="app.diagrams.net" agent="Mozilla/5.0 (Windows NT 10.0; Win64; x64) AppleWebKit/537.36 (KHTML, like Gecko) Chrome/135.0.0.0 Safari/537.36" version="26.2.12">
  <diagram name="PÃ¡gina-1" id="5S0Fmwb-ZFk-7ARKXca3">
    <mxGraphModel dx="1013" dy="760" grid="1" gridSize="10" guides="1" tooltips="1" connect="1" arrows="1" fold="1" page="1" pageScale="1" pageWidth="827" pageHeight="1169" math="0" shadow="0">
      <root>
        <mxCell id="0" />
        <mxCell id="1" parent="0" />
        <mxCell id="ousbUHaX7JyBU9SVbwSz-8" style="edgeStyle=orthogonalEdgeStyle;rounded=0;orthogonalLoop=1;jettySize=auto;html=1;exitX=0.75;exitY=1;exitDx=0;exitDy=0;entryX=0;entryY=0.25;entryDx=0;entryDy=0;" edge="1" parent="1" source="ousbUHaX7JyBU9SVbwSz-3" target="ousbUHaX7JyBU9SVbwSz-5">
          <mxGeometry relative="1" as="geometry">
            <Array as="points">
              <mxPoint x="110" y="240" />
              <mxPoint x="110" y="510" />
            </Array>
          </mxGeometry>
        </mxCell>
        <mxCell id="ousbUHaX7JyBU9SVbwSz-9" value="&lt;font style=&quot;font-size: 14px;&quot;&gt;Returns Person&lt;/font&gt;" style="edgeLabel;html=1;align=center;verticalAlign=middle;resizable=0;points=[];rotation=90;" vertex="1" connectable="0" parent="ousbUHaX7JyBU9SVbwSz-8">
          <mxGeometry x="-0.4737" y="-1" relative="1" as="geometry">
            <mxPoint y="86" as="offset" />
          </mxGeometry>
        </mxCell>
        <mxCell id="ousbUHaX7JyBU9SVbwSz-3" value="" style="rounded=0;whiteSpace=wrap;html=1;" vertex="1" parent="1">
          <mxGeometry x="20" y="175" width="140" height="100" as="geometry" />
        </mxCell>
        <mxCell id="ousbUHaX7JyBU9SVbwSz-2" value="" style="shape=image;verticalLabelPosition=bottom;labelBackgroundColor=default;verticalAlign=top;aspect=fixed;imageAspect=0;image=data:image/png,iVBORw0KGgoAAAANSUhEUgAAAHAAAAAwCAYAAADJuP4nAAAAAXNSR0IArs4c6QAAAARnQU1BAACxjwv8YQUAAAAJcEhZcwAADsMAAA7DAcdvqGQAABGTSURBVHhe7VsJcJRFFn6TBEwCmHDfCaAgqEAAkUU88EBFUEFX12s51N3a8lhOsRCVuJYX63KsR6GuHOWBIgpYrqIigrCwCkK4yyASTiGA5IAECGH2fa/7/dOZzExmQpBy4ZM3fff8vq/f69f9T3x+Bp3BbxZxNj2D3yiq3AK3/1xAe38poq278sh/nCt4enxFvdrJ1KJZKqWznEHVoUoIzM75hZau2kkr1++hQ8VH6HjpcTp+3M9ynPzIs5Sy+EtLKSkxgbp2aEpdM5pTt87N7QxnUFmcEIGbth6gfy/6iX5gAjGN35ImYokrkz9WKmWQiXy9Osl0/93d6Hdd0uyMZxArKkVg8ZFj9NbH62l19j7y+cRLWgJBlJ8JYqKCyJO6Y1q27bb+wraN6IkRvaiGbyNR3hz7LTGgZk+iWlfYgsFTTz1lc+XRokULGjhwoC0ZLFq0iBYuXEg9e/aU9mnTpkn92LFjJf21MH36dMrJyaFBgwZRenq6rQ2PmAncsaeQXpu5hg4UHqG4OGYPDDLKWJolBoSVevWlVMpluFGxwKD2ZHat48beSC1pJPn3GeVFC1+TTJayivbZ5woFkPT111/bkgEIz8zMFEE7BKjE+j4hXHnllbKQIFdcUXZRhkJMUeiO3YU0fvpy+qXgsJAXFx9H8QlxksbFsbDSRHHyT1MDlE1eU4bTfvDQURrx5Me0LPdJorqDrFVHJ6GgZGAlA7Cq4DoXIEzJ+y0hagL35xXTi1O+o+LDpUbrlqy4uHhkDWxGyZMPbQOQ98pOg60/eOgIvfDPBbSF/k6+5AzTVknA9UFcArUOwErv378/1a5dW2TOnDmy6uG+XKAf/j/RZ9KkSVK3evVqqR82bJiUAZQhANwg8ujfsmVLGY8U4wCknTp1knptmzt3rrTFiqgJfPntFVR0uIR4p+Nlj5XPAQuEXSGCF5iCuhtJJaspYPO2T5k2qTfZg4cO09DHZlNR4/fJH5cq3aORWACSQBZIy8vLo9TUVJFQBKIMq0S/oUOHiqKRR9+srCzbi6QMAXR+9Me8WDyoQxno16+fjM3IyBBBWyivEA2iInDO/GzatquAFWUiTQQrJmDBXmf3ONSjXQX/Qbl2DpM3JVffbl7AFYVM4nOvZlNc00zToSKpJKBYJSMc0Ib9UhUM0qMFiFq1ahVNnDhRyvo9CJBQhzLcNoDnqAwqJHDfgSKa/cXGADFyVIDlMWkSVWpQokQyubafYc2IkGeLpk7+SV5S+bR5/li8dDOt2Xsr+c5qgZqTAhCYkpISMdrTNt0bgy00EmBdAKzQBeYAgagHySeCCgn8aB7Ic6JMx/IQaSKyLJXzHQSWacgTknmgWCYERAUJf1jCUJbEA7JvvrWMfGyFuNGJJGaS2AECK0J+fr6kSlwwGbFi69atYs2wOFhiLAsiFCISWFRcQou+zWElGWI8y1MyQSLIkzRArLFCM8aQw8KKHnhbJ+rZvaUoXOrwnzCnHNi+Uuenlau300+FNxAlnJzrt2gIhLIRlKgbdKNU7GPYEwcPHmxrKoZLGBaDutDKIiKBy9fsFBKUPNn3lEQhy5JnyxC5OrP9TH8jOOfVr1ODJTlAGliTrCl4Zakz6Sefrydf7X6mLoKcDEDB2KfUYuASkdfgA3VwgdgXo1kMAM52wWPVqjVKjQURD/IvvraEVqzd5Z3zfHz28yGV8JcH48PCKBIkgDhDniHeEIs06awEOlh42KsLHPJNeyAg0no/NWxQiz58qQGVbAy/VySkZVJ889A3JnCBsBQoqWPHjlIHNwZLgNJ1j3Pr0FfHQNRq3IO1zguAEPQBKegTPL/bF+1uGX0wDuLmMSf254oQkcDBwz/ko8MxIS4UgfhQCmFFsicZJoUEJdCzSk5BrHGz1pKVLC6rRZu6APnzZw+g6usa2W8qj0gE/r8jrAvdu/8QFVprcQkw95hW0bz/STCDfdBGpCYqte0sZV0qSOFUrbRMyn2RigQWApJNOUeJOBq1VSHldEVYAnP3HQxBXkA8kmwQEywB4iBMBJfxKkkIY5G5lTwVKYMQwwoSztCunzkSrB6ewNMZ4YMYKMcq2nV3QkwIUULRDgkV2Nx3V1eqVzdZ5gNJeswQ4bySyAVLjinv+tkeckFWODlNEZZAVp1HgOcyWQxRLI7LhBhijfs0e5zpr+SBiAmTv6Hdewq9snGbmreiRHpi+XHJCpYIQGSHO0kIXhmdKiCwwfcjrUpEtEAhgQU/h3j0wcspvUmKkGKsy+5/KnY/VMLx2kheHdk5TAprM4SZuQPWh7QceV6deR6k4SQYiPRwoYxoDneQEJzhcImMtl8bOLTj+/U9Y1UhogV6YT6nLZrXlj1MyrrvSfBSSvVSk+jBwd2FOEOgJZUJSEqsxmUmCPXlyHMt0RBWI7m6EPqHWzpTo4ZnS75t64b2qaIHFIUzHI4B+hpJjwcneniuDHBEAIFIqxJhCWzfrrFRPCsVbu+vY+bSmvW7PCKUKOQRrR48yBGr1km9Ie2m686nMcOuNsTZ/mJtVtxyRodm9MqLt1On9s2pZo2zqIDnBZo0TqFjBxaWszqVUMBZCoDCYH14jYTbFPcmxX0FBOhrIKTuKyO87EUer59cN4w86rTNfV2kY7Vdz5IKeAGdF4LbHHWvOh7tOj6c6414DhzwwLsSjcr5zx7aJS85hnOQF/BUmEymFOX6KTmpGpN7hO65rQtlrdtJWWt3eISZ1BLIfUHwK/+4XaZ6d+ZyWvBNNsXzEvvu0xuo6Lvw7wert8xkKXsOhHJdspDHzQdED+/6/6QqCPdWPhggA6LtWCQoq4W7bQosIiwgzI3FBFL07YQi0ngsyFAH+/B7IKN713Rxo2ZvY/eIPC6vpWzdpJXAmdC04drsieG9vLPkz3vyjQWqO4U41oc8FDlj1gohH66T1wpdeUUbKmXrMysjjIQAbjzUbQJQFpQIZcf68hRKxbOpUkGE3o3iO7Zs2SJzQ8lar8BYiD4HAAtT9442jMPCQor5XOj4cLcyEQm85OKWnrKVNLEYTrt1SaMGuNfUdluv7bt259GSb3+ia5iA+nVr0GfzN9KqNbA+bnesT/rbSLRRg1o0/MGracHibFq0ZBPFxbPlXNqGSnLnsAKZqzASjkSs9AMHDsh9o5IHIB8tMEav4KBkAAqFlQCY27UmtClAOMbqeIW+U0SAhTaQo+8bdV4g3HgXEQnseEETalCvplW6IQaBzJOPXCuWtWt3gUesCPeRsu0/76uNTNwGzvupVXpdbw4lTt1o61b1JWgZxuS988FyWsgEwnWmpCTRZV2qGwuMEVAqXCT2s5tvvpkmTJjgRYCukgDdu3TfdOH2ddvVokACFA1yYT1KRCS41qgI9d3RICKBwMA7uorSxT2y0lum1aFzmAwEGHgH2P78RpQ56lqvj5uq3Nq3A0189hbOG8IgiDYb1q9Fjz9yvZQRcU6esljI25Obz9bnozt/fxFV2/N8SKsrI/ZZXbjWBhLhNtXytE0VCYvAnhkuxEcw4raDLJ0DigdpsDy4z2iIUFcMq8X5FM+mrlPbokWFBF5/dTuqDytkIhrUrSnE3TdkBmX/mCtE4Z0d3GOAPHOUEMJt3czZq+jhUR8wUcbyMto3pZc52iwoLBZLLigopjbnNqCberenXCYvnsk7OyWRbutdn47unBaaNEfiEsuH5lAmrEMVDKWre9N9Sq0FyoPiwikf/dEOa8ScGIcxWAAgH2SqW1Q3GwlwiUoYFhXG6NyxuHcgqt+FInJ86JFZdHv/TlL+YG6WRKIY2JgtZ/SwXvTchC85UCng8L+6RJ1mVhNdSl5Sk4f1Id/nugvph017aPnKrfSXey+lQ0VH6P2PVsjeN+5vt1KXpFGy/4VDQp2elHjeRNqZX4fSmpX/mT5CdShW3SAUDmW5P6GAdaIdJEBgFWoFrqVo0AHyNKBAaI/5Qbw7N+phrZhPf0AMC9a59bUUXLcS7/YNNT4cov5hL37eMIVFjw7uCSKjfTP68ae9dNkl59C993Snh0bOFDINaUKjydvXTRBEmX8a1ENc5ia2ZkSbRUxg1rpt1Pe6DjTyzr1UvDb0fhKX1IIS206kzflt6e2ZM3hBJPMiGmVbqwbuMSRKFZ0SVOhCFff9sTv17nW+5wbNccDsZyuztrMbPEzZm3LpG44eZX+E+5T9jvt7fbXOyGtTltCPm3MpPoFo8bJNTN52Oq91Q3r0z03p8MbyrsSXkEqJ52bSkQtX0LR5++jZ8S/Qth3by66m0wxRW6Di6XGf0Sfz1jk6U2cqRuZBppV/1gr5o3NGGq1gdwnE8dIxgpfFnPK+16VTGj09pBXR+uvJX1J2P6redBAdbzaKvlyWTZ9/9SUVFRebr+aPdm3a0uihI6Xf6YaoLVDxxKjeNOyBqzhAsVYlgQrepgfKJngxd6mol4CGLQ5MgqwEtjhIfILPkztu7UoTHjuf/Os4Kj2aZ0nnPrzP1ey2kFYW3U9Pjp9Ksz/5mIoOgzxmz8eTyUryVtNph5gtUIEo9MWX5tP3q7bZGqNwSY3peYCOcasi+obFoWytrnHjFBozvA+1q/URFW0IuE3sc0mtM2k3XcVnwxm0MfsH06Cm76TtWp9Ho4eMMOXTDDFboAJh/+uT7qLM0X2oc8fmsqcZt+kXewBJOIx71lbNxykLR5hImzZNpcdH9qH3JnWncw4NoEPrh3pWl8jEJXRZStMXHKPHnxlryANhruBbOJVvk3JZ4F7T/HanvOCQD2gZAUsk6FxIAUSJuGQ+GcCzuM9YESpNoOJGPru98dLd9OmHD9CjQ6+hiy9Ko+bNUimBCQNp6iJT+Fx3Ued0jjwvo2mTB9M7zzemHqlPUN43GXR0n3nTUK1hP0q9KofmZWfQiMxnaPGypYYcV5Q4K5KP4EIR3iOadAXnrViAcB7jkGpZw/9TDbaNqkH9pBzq2/pV6tclg+LPzqCElAyOGs15yX8sn47lZ9Hx4hwq2f8vKtmykAqLAldUCdw/+QI+FvzSiF5/5hXat3+fQxhDUpThmd06yTj58gBZwX8LGA44l+H8hXMhCNMzn0sgzo0KWCT64Oyn5zxcFrhj3TMdzotox2EdeT1foj/E/dlitKj0HhiMkv2LKP8/sV0D+aqlUs0LJ1Jhjb70xvQ3rauUFmkPJkkeVOskNXXtWrehMQ+XPXboqyEoDsp0ocqCqwKgRCg0+BYF5OOPU3QuiCpdgTwID/4OWD7I0sXgQucKhs6rhEaz8E7YhXpgTeoeFo0ktRpKiT020Kz/VqfhYx4pSx4UawlC5OO6SxVYYjQuFApUham4BChUoUhBJsgDAa7FAe7rIszjLhC04fswFnMEX4uhHYJ2EIQ87EcXTqjnqghVR2CUqFavJ9XplUNLcm+Qfe7zBfMdYvhxkFoSDXEoOnUgzs2jTdpDAwp2yYMEWwSg96TY26BQEACAEBfuqx1YsbaDlCFDhog7VZKD90m0Q/B2BKTjO/EbnRPZT6uUwGArcwXHgtQeC2l3g8k0dsJUPhq8Zw/jAXIEIAbi1dnUqTPEunVmaCiAQP3LXJVo9hqMA9FIqwLuotG9E8SpNVYWVUYgcxSSOPxlUY22meS/aAW9OmstPTt+XOD6yxVmwQ936RCGukCbyZsUj408EktiGMCSEGAESzCUKCgWe4+WIxGIAAV7HaDuFhfoaoHBe6pCXSW8wdSpUyVfWZxUF5qUNohqXL6BvticIfvc96tXQe+idE8sSUpQcJ2QilQIs20MzXvjwgCKxQoPlmCo0rFvIbhB5IixoQh0yQUZuteBfBAKy0IKgkJBx2Mc/j5eCVW3HQuqLAr1l+RTCR8VFPHJLeiojw/7HF0WFRdZvauijfIBY0XI2YzNuw/lEqdkSbvtm96kKQ3oV/ZgDSuLFBTAlerBHIrH3oUXqyAOioSSoWDseToXiIf7RT8lHCShDtYH4jAWbhFjw71aUivFnKiHpWKxgHTkg/tHQpUReAanBifVhZ7ByQbR/wDkRcl0J/swVAAAAABJRU5ErkJggg==;" vertex="1" parent="1">
          <mxGeometry x="34" y="185" width="112" height="48" as="geometry" />
        </mxCell>
        <mxCell id="ousbUHaX7JyBU9SVbwSz-4" value="API Biometria" style="text;html=1;align=center;verticalAlign=middle;whiteSpace=wrap;rounded=0;" vertex="1" parent="1">
          <mxGeometry x="40" y="235" width="100" height="30" as="geometry" />
        </mxCell>
        <mxCell id="ousbUHaX7JyBU9SVbwSz-6" style="edgeStyle=orthogonalEdgeStyle;rounded=0;orthogonalLoop=1;jettySize=auto;html=1;entryX=0.5;entryY=1;entryDx=0;entryDy=0;" edge="1" parent="1" source="ousbUHaX7JyBU9SVbwSz-5" target="ousbUHaX7JyBU9SVbwSz-3">
          <mxGeometry relative="1" as="geometry" />
        </mxCell>
        <mxCell id="ousbUHaX7JyBU9SVbwSz-7" value="POST&lt;div&gt;HASH&lt;/div&gt;&lt;div&gt;Biometria&lt;/div&gt;" style="edgeLabel;html=1;align=center;verticalAlign=middle;resizable=0;points=[];" vertex="1" connectable="0" parent="ousbUHaX7JyBU9SVbwSz-6">
          <mxGeometry x="-0.5223" y="-2" relative="1" as="geometry">
            <mxPoint x="33" y="2" as="offset" />
          </mxGeometry>
        </mxCell>
        <mxCell id="ousbUHaX7JyBU9SVbwSz-13" style="edgeStyle=orthogonalEdgeStyle;rounded=0;orthogonalLoop=1;jettySize=auto;html=1;entryX=0.5;entryY=1;entryDx=0;entryDy=0;" edge="1" parent="1" source="ousbUHaX7JyBU9SVbwSz-5" target="ousbUHaX7JyBU9SVbwSz-12">
          <mxGeometry relative="1" as="geometry" />
        </mxCell>
        <mxCell id="ousbUHaX7JyBU9SVbwSz-14" value="GET Cadastro&lt;div&gt;by CPF&lt;/div&gt;" style="edgeLabel;html=1;align=center;verticalAlign=middle;resizable=0;points=[];" vertex="1" connectable="0" parent="ousbUHaX7JyBU9SVbwSz-13">
          <mxGeometry x="-0.0029" y="1" relative="1" as="geometry">
            <mxPoint x="1" y="1" as="offset" />
          </mxGeometry>
        </mxCell>
        <mxCell id="ousbUHaX7JyBU9SVbwSz-16" style="edgeStyle=orthogonalEdgeStyle;rounded=0;orthogonalLoop=1;jettySize=auto;html=1;entryX=0;entryY=0.5;entryDx=0;entryDy=0;" edge="1" parent="1" source="ousbUHaX7JyBU9SVbwSz-5" target="ousbUHaX7JyBU9SVbwSz-15">
          <mxGeometry relative="1" as="geometry">
            <Array as="points">
              <mxPoint x="432" y="510" />
              <mxPoint x="432" y="320" />
            </Array>
          </mxGeometry>
        </mxCell>
        <mxCell id="ousbUHaX7JyBU9SVbwSz-17" value="POST&lt;div&gt;generate ficha&lt;/div&gt;" style="edgeLabel;html=1;align=center;verticalAlign=middle;resizable=0;points=[];" vertex="1" connectable="0" parent="ousbUHaX7JyBU9SVbwSz-16">
          <mxGeometry x="-0.1044" relative="1" as="geometry">
            <mxPoint as="offset" />
          </mxGeometry>
        </mxCell>
        <mxCell id="ousbUHaX7JyBU9SVbwSz-5" value="FingerPrint&lt;div&gt;BFF&lt;/div&gt;" style="whiteSpace=wrap;html=1;aspect=fixed;" vertex="1" parent="1">
          <mxGeometry x="224" y="485" width="100" height="100" as="geometry" />
        </mxCell>
        <mxCell id="ousbUHaX7JyBU9SVbwSz-10" value="" style="rounded=0;whiteSpace=wrap;html=1;" vertex="1" parent="1">
          <mxGeometry x="290" y="175" width="170" height="100" as="geometry" />
        </mxCell>
        <mxCell id="ousbUHaX7JyBU9SVbwSz-11" value="" style="shape=image;verticalLabelPosition=bottom;labelBackgroundColor=default;verticalAlign=top;aspect=fixed;imageAspect=0;image=data:image/png,iVBORw0KGgoAAAANSUhEUgAAAHMAAABXCAYAAAA3fnrGAAAAAXNSR0IArs4c6QAAAARnQU1BAACxjwv8YQUAAAAJcEhZcwAADsMAAA7DAcdvqGQAACcBSURBVHhe7XwJlCRVme4Xe+ReS1dV73RDN0IjjayiNOICLqjMcWtxnujoiCvKqIA6znM5jjruyxM3mIWRQR1EHBR9IoICKigODkt3Aw3dTS/VtecakbG/77+ZBX2UyqrzZs4B69QP0ZUZGXnj3v/7l++/90Zqvu9nWJJFIXr375IsAlkCcxHJEpiLSJbAXESyBOYikiUwF5EsgbmIZAnMRSRLYC4iWQJzEckSmItIlsBcRLIE5iKSJTAXkSyBuYhkCcxFJEtgLiJZAnMRyRKYi0iWwFxEsgTmIpIlMBeRdLZaJkAUekhNHbplIk1jOLoBpLxCDtNDu51CT13YVg7gR9AiZBq/Ax9hOAJN06DTNCz5rCtJBARBgELe6p55fJlMdAyGU9BcE4FRQZvnKvJBFqDppSjamrybU+JoDEZ+GULkIFfaSZMnY75y2KHCvCYbZxxie4LjMhDbAwh4LhfV+TVffd9DEfnaw0DBQZAMIHFyyCNG6reQ5ip8FfBaA1GaII3YX8diPzj4lEeWoG3kMbufVcsyZKnGWxn8jq76y2/yXyqa3814v6kWkHd5yBcS9sGmzntJmiKItVkw2ZAMmC0TV3YghqHxhAKT3TAsngqhWTo/11FvRzBdR31co+aNsIUwiqi/mIByWOxoyhvIIRJxML2kleZw0hBfxA0EekmBWUgCmDSuQLNQVVfNLYRMASAq8TxgmQkM2PJJF6jetoBJfnmZTgMwLdwzZcMY0JQxlagCqhIN2sUGM0bWmkZYGKbRAEWCpFEDM7xfv2WhFTSRFahQnQbJHsktQ957YhwYJjCiizhOkVDXco0YfxQR6HYb7WIIm/cy5D+ngqqXwKVXuGEdIzn2pVJiaz1E2s5oGApMAgGTLsUeeG2fSjRhc2DKnOSg52T8uEWQE8NUyv7ZnaP4jx/fhb0HWtg13UI7aCPLNDiuC53XxEkM9h0GPbydSCNzy0prN37w6bfjqcuJgl1SBmPQK2k9GAt1nH3Rt7pXPr74Xov9cpQRDeVTvOqMzXj1WSegQiUKmPl5wBRjKdC/GqGJ13/837CrYcMkOAY9a9LL8JQj+nHlh7ZikOC12beA6howOt4U6w5MiQIcc4v32UNwr77xbtz4m/uxfzJCvZmgtbeGXKEA27bpGwYjmgHLZucIaExv9Ao+LJqiSf1FGY2B+s4zQrrBNE4/9gh85yPPVv2cU4hLptFAOp7JztCjoihUHubmC9DpmWkXBIM3pU5RJThX33QvPnfZ1RidYihceRz80EIortDiKBL6tcuQQMtjQxwr39MwkDBu9JBcMIEHrnonlgmAVFYW0+oZxlO9gIN8v+G1P+xcOIeYdooooSYjHxVtBm8752S869Ungo5CT22gr9Dbsms87LiFhlbA0877DGaiZQyvNgpukQBxPDN34r7v/y1WMv14foxywYXJUB7VatAHVmFfbR9SYzW+esVt+OqVvyLS62AN9THFjFFJ7ERIxeUZnSR1tenXoleT8YQhV1kGIx5Sntf4nu2LETPPwfUn8ZoXnY6vvu74TkfnEn43021qSkTlwJT95wDyJRViQ3ag4bfRCmmxvOqOB2fwvn+4Dp/++q3w7ONRWH86lUAg2cd8uwQtLLOjJabXHNx2DrmkQGX2cSx9cOP+nofPe00Sb79Bg6C1axIlohjNZlONNcv7PY8opcFIbrSLvNhCznKQY59tLSCQHYPsJTl6Zc5MkONtcy7bKQxSJwW0IjaS5TG0YlUnf/kN9DsJPYhGR45hlcrUD/DLvS5e8q7P49Lr/hMrTzgL5uA6BIyx9jLmDhqAYgAeARJvEGVGLpwsB5sHMnrojAvLK6Mc9bMvQ3D1IVTCCnItB8WA/ZlXaPgZOU3nTXfA3T8RO0KVIlfMwcxZ+MNEjM9ccR1+eAdJwMAxaFsr0JJEIsTEDuBro9Dy09BLVWg2X+MhOuUOtOp3onbgZrTNas+jQoLUzz7nSgSD5CBQCGYol4tKwUycvY92nZ32OBh6KMN96PudgTHvqmMesYQpMHdJgIpDoiO5nu2AoVYIiNeog+bC4TJiGB0lpSkN2Srhu7dsx1s+9DNM6kfBWLmaXrodsUMduCSGtQAVez20nAkzbxJ8huSSDKiJsHUQZjSFgTz7V/AQl0j2rAZ8t4m23UTNqsNnLp00OLb5hB6dMYd3wRQAJa1T1Dja9FJNYTs63cRb/+5K3D1qICmvxHjYIJtjB5ibUJ8GpmvIyGbTZBXJ2xCiZpE5rARLG0E5twqOsxxam/G8x+GPPYzRPTPq5plBAuLSD3JEl9bWrrcZOCo9D1jCwgKG5oSwZFS4Q1+jGMK852GClFQolFMiI+QtGa46tJz5n6xEp3dnjFTCExIhgwyBoebAL/Tj2rum8IHLbmDIHOK5AoMCIbfJcrUGu85QQybfrDJ6eCsQT5URTeSRNPtg+v3IqjaCcebcg9Rj22J0YxUxRb3WeY9pGvM0OxPmUB2b3xiF60iXu0+BRQQzgmXS5YlvGNBlGacmGhG+e+338YkbKmi0qOwcLy1ysJEMTYfDUJRRA2HSgEvKqMcew0eAow5bjtNPPhZPfcp6elweae2AuudcUnOW4aVH23BTn4Qipxh1MD2OIknDOAd6+Lv+vXPhHGKwr4mELIZFfXof3vPqZ+O9rzmGBIahTk9AOtO98vGlTt2VeYmQl+e851sYN1ezvPFgMwcrtq5P4Ndfexs2F8nY6cfCAKaJwXP/6ovM6WuQl5KG51gDIBU6HRKACqNK0YXfqmN9kWnk4H7kqfBnnrAJzzn1JKwb6YNFgpXFAcligAFe22jVYBcGVH+CdhMDZojN6xhyGaF6C5k03A6YSnl+xNqGIYCDEJYVEqibdgFbL/wEov6jO9+ZS1hOGBobPHAnLnrNs/GB15/JpiX/sVfMGZnOHERhMCDJ4gAYQoV5mmSAItSL+sfQ1SuGO5Y4pq1KjVojxNoLrlfn5xKToTC2mLNZQhnN3Xj/y4/DJVtPhREz3JJo0My6Vz6+sEdUbIBp5q/j3/RPGCeZAb+rsd1Mc1FMJ/D7K8/HWumQfhBTxnL8zTfuxjU33czIsgZpH12jh7h+gBHtAL7x4a141qZ+9kegdxhqNRobo8L8waO3JCRAjGiPjlLKkY6Iv9oqrPz81t8xP1NJ8wmZp0Wvevqxm3De1jMVOCHhbKV5tLtAzorcx2JdJmD+uUjIelBSjoQzUGlT7QT3bn8YOssLl5FnPmmnk/jL816JzZtWk2cW0G6Krl1yLAdZrmPA/xOiwJR/pKxMpZRgvSJ5YYJ59wc//w3S3LBc0lvarPO8Kl5wxikYppVJEe+32gyZFlhqMdckim2xpFYljxzyWkS89ckumuF2crDqsokdD41jx8OjzKs5pqNZJ5hbnGKCLaevZbin+ISRTF8sXiJiNV4AwVmgKDDF7YXupFL3sKCVju856GPfgSpSCV/zCXOb4ziw6WwWm5Dwlme4rrDHQzQSmRUSAA8VAVFATqQ2fZJLoVBGwHFJKduMM9x5H/MPynxvwWNenU+0SDIaQRW7NUg0HWZd8g5mWOTNBeh3gdLVcMc7ROkCZpto7h+bhtsndRLRmE9ielq+gjv+a5tUFtIQjZZtNSfgRLVHvVBEPFRmhwREmeKS/PlkF0s31YxnxiG1WRPfdffDcAfWctx0AOEY84iTDeLBHY2ObmKSQbumWK/BBpPmY7r574oCU9SZ8j9Ngcn3PFGr1dDX108Lkqw/j/AaEl/8Zts+XHXTHswkDLTGABM7rY7GMSvijYeCpzxW7vkkl9jzFR+WuVjDMrB33yTzPksiSXf2/JGltq+G7/34NmwbD9EsjtD2K2jKhAQl7/wPg9lJwbpStryT2SU9i0noWDQvAEyzQu/lV8c9Ax+8/Hp84pod+MG9Hva0c2iZRXi+p+ZuxRsFPGGxcsi8rRxPdkmCFnWSUUMRHIslALNf0KbWWFda5gKM/cgNuPH3D+D8T34HX/jhI/jNTAF1Ow/llAsIfAuVR8FkwHvUa2QG3zV01Ken+EF3MqGHxLUJejV71rcSDXcNvvLPN+L8T30bzz3/i/jgP/4WrVaLgw8UmIeG3D8XMZgaGGgZamWaXUOp3MdSUlaOXGQL0A8ylkjrj8b2Wh8+95378ILXfR2ve993cBW99UBtb/ei/74oMC3+pxFRQ9xLlnZ4du26w1j0MlQauc5yWtBgLZmhlC/Sa3kB853tmqTnBEcmD2L+jZhsZU5s+So0zQEcsA7DN27Zjw2vuxZnXHITLrlqF360E3iENXUzyXjPJmu5aXi1erfGTBGQGOgsX+Rds+arwv+JlhbLs7VaADMugD6KdRv7WchPIB7bj0I60kklUg7MLjAkEV8a6hCio5E5ZQ1PGXNg8vXACH41auPC74zjiHf+Dq/46M34yo1juJ+BUCYkErXwJu3wj6hUFvhEITwl/tYiTnVek8mHh9iSAjOhYnV2SJK8OI6s6KxbU+KFDVT6iwjHGyivWI2UIbFxYA+rlwz5Yo5FbxtpMH/OiMwCxiMTV/3kVmx940V41QWfxTW37cSBuIiZbICWXsbMjKxdUCeMCJKbpGPlcg6WLYXOEyupabNHBIsGLLnz5GM2onZwLypHHIlanRW5TKaLlqW0Ew4g67ldlp4T3jGP3PDAg/jEVT/CGX/1KbzwrZfiihv2Ycy3EEsG4g2bDaIsQmzarYSnJNBbCOQeh2SpLpiy5CT9MBG0fHYkwhCxfOYJT0EwtRvoX8OQ6zGk8Mv9eSRhHZ5Hr5JlnHj+oK+vWINqs41WbhlGTnk+HvBKeNv/vgyv+sBV+N7dKTzqIVfup6V18qgk4DCiybFPnlj6EyxhZtIH2C9GHY2Gf8aJG7C8bMFvk8nK3C/P67J8Je4ji8r5PHQBNAjUgv18EtNYZtIKasUTcOfEKrz7K7/Ae7/wE/zqgQk1j2a6RTp7xwVtuqLELZnV0qRP1NGsKDDt7uxPSkRNh5jzrZx5y2teTK/cgZwspPq0QJIAq5xn5+n2gUcvsmCwI/NJqnFAg7RQ3cLYwRqC3ApUNj8X94wZeNfFX8IV/3E7QvZLYFO1LjtrsJNi27EY0BMtsQQ6UZyOnBHhCBLZrS84FeH2u7rrlNShxQ5LX0n2Os7ReR/589ehzrJVbIf6SdjQ8vWIhjfimmtvxTs+djl+8UADmuUgEz0nTDt5VgDUkYBpkERGsjenKwpMEVn1ETXKnKhO0KTIPWUjcPapG+Hv3oZ8RRJnimicpKjUB73Uj4iU3RCtzyeNcbrYDL8u1sUb0TBqtTYiPQ9j9QZ8kx2//vZxlS+itNMlk7lFWi6UpCdPvLRkSYypSEJcgdCe96JNGFjN0qsxStf1oFOBojeEHFe1quaXFdmQ6DWPaAeom2nqSGeqqe5AVt0N+8RnwKsci9deciV+s72hjJ034T9sl8Y1a+OaIec60tEc2Zqcks8lW2VE25AtIo0U73/LuVi5mh3yDrLjVXawTM8ti+8wxCT0nG487yE5kqRKzoFLwqRcjrWPU3Lg8H0ShNjZKuHvv3kN9nAsWXfyvdOTJ4eYFj2MJVqqyeYOEpighqOWAR/865diQKNxt5poN2vIMaQZFQIskY6eaUiIW0AdbVEHw+Qgekr9mjWUDx9BRO8bfYRRLL8BX/rWDcrQY3qoWLhGh5PysR0w+HcXJ0S6d6LT8lU0i7ZckAWwsyaeui6Hd5//YhwxIktfEQpOP+KQjbZJmnIWUmP+GRDbZL3JXNyuE3gJATyCOjvqt9TcZjx4FB7e08Q1N9zT2Zgl1wiHiwJEzDtPtNg0WNdlqBOKIL5JjEzqauuWI/CWs0/CyLq1HFPCcsVHIZ+DmXepT+Y0CbULyPkNgj4VJrCpWySsQfdOwWUUKKxZwbTj4ZZ7R3H1L/dSN8yWkob4vwQBQxlKFzRKB0y5afePhNqONUUo03tmxiZw9in9eNVLzsRAkdR81wFakAO72IeUtNty1Td6SjuU3ZwkSiy4OwcNQ3IAqbtG9oqY4Yi54srv/Qg+cTSE4tPAHA7Stmc99YmTzK8jz/5K9aVoiKjHq6lwe+HrT8OzztiCEnUTzcyg0agjpqepnYkytq5ue0qpgKQ0gDZLH4T99PBhJM0QrZm9MIoNprQVuPr6n6FBIHXyjmbdU7sQbbpnmD6Wkztg8l8JyQX+7aiOjep97IiD5SND6G828Y7nrsD1n30tXv5sB/roT5FM7UTOZTjwVgIV5hOHjdoGc6gQJIYMFAlGhazORWxnyFinObJe6jeYFxia5Ia0g6RNzwsngWKKg9oa/PNPa6CJ8BxZW8pyicRCtoPMHhJ+VVEsh0SQQ8LM/6/IhDdooLIDMc0kTLKPaYH3Y98SA2GlT+1CcOglwhyg0YNIBJksUGHO+vqrBnDZm4/FizZXkK9xLA0hixy35EtyjSzg4QxSP9SrEdKza3CzKnIEp2wzXkt+bckeQQbTfABfbyEUIJjSkog1PJ3vt7st3LZTlkMsFCtN1vi+cnonlT2qHemAOY/0Fy0WzBEOHzHw5b97Nb795Y/gxSeuQaG6DSXvYSZvdnqKFlhnDUS9WMwxqd5AkI6R8+xFwnpUZpmZt6HnWfMUqDCZdRajZfhSkYDgafTEvfv3q+iQMI+LCDN8soudBjjrlKPx5Y+ehy9++A146Wlr0O/vBPbcTsO/B66+jziRKClXWYasPYDMGmTZr7Hk42fzSMZyLWO02rnrICMcdZVZJKo5tY1U6bArCwIzbk3BipsoJG0QBjybLPdr7zsTP/vGO3DNp96Ic08/CptXuSi299Njd8Fq11ByaQA52rGspNM7yanphSRaNH9LdsDJDFCmqV10ihEzH+ssdbbfv7ObBTpdS54EdeZ8IpusHTL1QuzhJSeW8I2Ln4Obv3kB/vGSc/HuszbjuBVk/VP3AAfE8OtAMyHnZJopFIH1q7utzC2JYau9Sf95zw5VvkkJIzqSibhDZUFgmoUKNNdmCsgQM1eg1UAhiLCBfTltnYlPv2UTrv3yy/DTyy/Ax978fBy3nKF4chLGJNlWPAArXyCABDZkOPEieqiYk047zei5ZM6d20A2TO3auw9NXqbbNr2SDnxIHfWklZikiJGkP5egDzUedeomwqu3rMdH3vh8XPfZC/Dzyz+Gz73nldSXjnK0C4VwgpGMJclYZ+arl6SKHRu49/6H4EnSJrDilEItMrWVsyMLAjNMXTR8jX9N5BgmC4WcWkmIWjNsIMJQchArOYgThlK87aWH4/tfeAX+7zffgPNfdBwKU9sZVhr0MIba7uRERlBluU3YXiZzuSIW82SUouEFmGl6/IxMmZF2IfzhiZbYYm5n9EmYAyNGr0yKe3qpwdShMxaWCQDTKd74vD5c+8W/wI3fuhCv3LIKtj9JQBil5hGZRhU3nKRXsyggapYCU7SZZY8Z+4LAlJ3YTo4J37TIuAhqpCFf6kOuzB5K0E6GCQQ7Facwmy2UCcJR5AhvfdlqfObi05DT2kibY4y27JQ8EcOuaGoyPVO1mMzFKjD5J2NHvbZssZIZDnZ4YT18QqUpPEleaEVYRpnqEhJFIkjWrrsavIkmyaLs+vFhe/twzGATl7z+eXjnuc+HU9+v2ugprPkllsuq1qw6ZNJAxbc/mTSYR0hGEZEqtxsBXOY3myVFzKI0lidjaB91ny1LsU9vMwomdM1THT+sYuLcM5+OU4/fQPJJb0tbBJHfYRu6bbEN1pEMT7IaoxbGWRQbNpkfCzlJ7owsC7S2J1bywuHE/ATRlOlEDpIUedamQRrsjtDQqZ6oLU/X0SnIG4Z56uwzNmLD6gWkEeqJdQirAxs5plox+s6DRhRNmZGShemK1xfYSlF6LfixMVOTRWbVHLQKrU8PEOhtJFqsPKvdZpmSWAw3Jp532inqsbzYazDEskCSwpehSbh1TOKjimsR1pSGzPfSW+VRQJFHP3sSS+iNQ49oqKJO0a0CVYgdiZFrwjepE57SXDJ5k/XkjCz/kfssB445RqLbPJJGcKkbm2EqRwgEBCFdnRT1x2AqvcX0pZA3TSV1sfClQSQhP2ryWzzRnblR62RqhoaAyF+an4VJGl4LkpZDL6GlVtTNNSOgw7bwtPW02ulJDGrLYfokUk6L1x9gbZlnaXoYPX6CNRwHyuK8UIqwYoAEivfWspbas/6M9SuR1iYwspLhXKclh1UUpQYSQkVWGLN202VygXVxQqZ81/QYWMnKfBc0MkcZILMZhx3zP46Pr+S1nIsTgiATn9kUJmo1jp+kpN4Pnd91DTK8UoqzijMq3cdaHo54iXrkQVYu6HlUYdEpMSiJYTOh6d1DCg/mTptHIWyqBwBaLCNp23AGZMatxkocGKhKv6krEj7Q2DWiXJQdf2L0slks5LFyDdqTO7G+EHfKano91aN2a4TyYFNXOmCqf4XuUjmMz7IAIJ231NqihsCKeh5WtpzHADtfYBiQGlJCSobAl+XuAnbsniRJkMdTdbUKkjBEB/ReaV2MqDSylrnSQGWgiBM2rZPHRpCX/ahM+gbBWb/cxsqhAYzuYUFu05KZu5ssf/I0BvYSbr6MdHKcrwPm9iJuu3W7jISFeh8VT2NMHHqCRdBMJL6OlP1CQAUycpjsX0jFtq1luPH2aXjysCYLcneI+pDUMR3izC0nd+Y4RJGyo4IlVUI2H7d9tkeDN3I9D5lIbdZZAbA5yTKaYqA0Qv7b1Bhv2Y7oHG6R6k/RbLEPpoNi3wCcMscwMa2c6JwXnymTZqofapKM0pYavisdMNkQyz4278JRWyJ5m7itQqAAQPrT++C9ZftnJu1K/DAJcJ7khhY2SWb6898+gIjeGov1yawImV8mexcpEcNTtZV28svYbrzsuSdhUBkb+8CQ26AFnnPGetRGd/GrHFib35eZFHpmwtrO4X9RwD47HF0kUcSG1xrA5d9+EL4stVYEcApvJ87jsAtyPDqfz/OynngPK4S/v+wWDK1mEe0fhDdzAG4/DbNexzM3reVd+H1RjTyLQoAMx2UEstDHQlmA7nWIfgt5U21GUE9TkwzEyOE+Bqdf3neQ7zPW4DwvuyqkfZn8ZX0uRDOYEZ6RQ5512smbn6IyVMwoqOnyeKGHcpE66YoCM6HPqs3JCjhKKPGgzcE7HGsOJsNZr0NGalUYdgp1hMYoJpq7WGm1WKxk2D1Txy137Ubs9pMXuDDpTZbTIQgGR5nFDCMpvaA+icOouy1HV1Bg3m0y5MlitUz+P+voAaztowKaBMulZ8pJGkZGa4185mmCqeXZJkugONLRP7QZ//TdX+P6O6YZNBl6jQa1yu8adRrNOKPzQeb2GQbZKhrROHa3HLzt499HqzyCifH9dBCG/PwwqrsexuknjODI1X2KBMoDYIGUT61QkTRReoteZMa1noc8uqqWw0TbMjdHb5zisH9w805MZWXkBeU4YjSkOzkFGg2pL3UiT1rLXHauUcWpRx+OtcsNZjamKFtSRKIIkRjjrCgwdUcVByrodT7kDXMWIpriAXpcyJH0Oqb5xb2eh31kbi0MQi8eyUxbwfd+sRdv/9srUZsJYeQryKiNjJRPk6k8hj2LREcmiERTdlLFO//X2Vgm1kuAnXwBMw2GUuqgwlYvefu5wPj97BpBabN/DJGum6OhexwvPV0SEssbmXioknnHzhD+5hNfx+d/cBv2eC4Nq8j8VkZoDTNKLCdh68dkWsb9UxnedPFlGM9cxOM7YZQdlHODTHAGrd7E1hesZ15PGM5oENJV0ki76CqaIWeSAsO0Wel5xBy7TA2ow3Rx74EEl/7b7bjyR7fAs8jeGXZzHEOxxDBLFFLZ0UDGnyfhWdafg157EG/aehYGiLHDOC1URXZSqkdKBLiuqAeH5OHuKHEV3ZUoCY0IUsu372zj6p9twz7ZctlDhmQZSzrA/4Q81ZoayUSGgxMRRlljhWUDub4KGa6nvKlDnCIUygW+TOE/8iDOOnUdvnrJy7E6Lw8WhQhJ33X2QfKqEdRQZ5g+/7M/xXU/vgvW2qM5Gnoz87vYhUWrj7w6nEqJYUlIgwZHfkyiuQeyvLic8fXUE5+GZ5x4LJYP5dS89iP7p3HLHb/HbTwmI17Uz3DM7+SdIryHpjE8NISnrqjjXz55LmQqOwxI8NR+JEkdKb79k1txx45RWP00jNm1wzmkwHTVjJs0Anm4R8f92x7BVNPFlFZm1ijACuoqGqRMP606jZIgujT8sDEJmyH43BMH8cmLzwHjBaOZmBFzMMucohiz1yRUjFKG3QEzps1EUYkBSW5FMQkAmdu/3PgQPvSlH6NW2CBn5xQrmyBVJtlJSCo0uhatz5dCkWTBkPlH+SUALULEMKhRsZlQOrmXI9VZjI3aKD72zq143qY+6lO4po02wWS9zdKG9p8VSLRM/KEe4c3v/yama6s4pDIa/gSRIugkM5bZseqwQbLg0FiaNYxseBrGHhrj99v0rozjk+ROg2LiEcW1mV8lheVX9cObOgh3cBjtJhOLEWOV/wC+/7VLMMyUJMTZpZUbNDIJrW0eF33hOvzrzduQltcyGiitzSl98vMCbgJP4/2ZXnCggeLqDUxNRcxMHVC/A5EQJjXNybQlDxTBmyajruL4TRvxlQufiY3LyoiqUyiV+9kHHS1yDpcRw5DfVqCuHn0KTHKXQ2uQN6ms9VCE+NjMIcgNMUZXex6RMLP+lYj7huEzzwpZJB9n6TGDpDjKMoNFgE+LSzxavvw4A0EnHUtbPrLGDC766614zvHDKDDcMsagRUuWDnsS2oSLpyQPBGJtOcOH3/0G1A/so0Vy4DJhH1XV0prsYw2rPswKzxnMVasrGNuxk/1fzzjtMpcnaMjOiL48ssESvAKBLDOGrxmmZ9UwQOYYyspPUoZf24/Pf+x12EAgZblWsJIHbhFzTAE9n5KQlET2IKM9yy2OpdfR0gaRVtgPMn6MPAXY9Aw0UwczHIfcQOahY7U6xJuxkBRil8yQQ7BvF737hVi3jISLRVOJ4KvOiHExNRoSZv940oBcUti2oAqdrIvYSrMMgbyRVL4Zz/U4TPEKCQ8ek7POWM7QaYak/X4F5mSBYWqcIYChO6Z1FdYzpy7j9aM4eW0eV3zoTTjvtGEVQqROhF5G2crLiipKBZId5ja5TcT6dIhGc9bGPC795POxfg3zZ3M3vWUd/GCGBl8FymTgsvGs3YeYDqmebs22oZjMoOSwBHIJIKOHXKI2T9FwdFlf1dZjOnJoyA/hlP7tuOq9L8GzNrCipxJkkbjEnG2S0sFI0SIpET7jy5KFmhXgwajT87DJvKsNRrAc7LEZ2NVxiT3kBX2sWyvwPbrD0Doa3REsQ3jTyQZeceZTcfmFW3D2QI33l53NTAOiH+pCcJKFJsFJphBlClS9lDDrJZPQs35+gSFLdpY5bd6qgH/95V685+PfRXL4kby0lwj0PaQpA2f2ozIzhhU3nsL5Z5+MC15xOmR7rkZS1lMkWIjZ6RKCNZIrEz+/expX/vAO3MSyJ8izf6w1NFEuFc5sw4vpQaTvjNMkM/RAEflcSJfMC4snyMJ4IEUts70/jZMO78fF570EZ2yqqB+kaFan0dfHfMqbZwyVqn2mkQY19/7/czOuvGkH4tJqpDIj0Evaj9WCzEPdF5Tu6wo1XyObh1fFunWDeO1Lz8B5LzwcI/xY83zYwgIXIApMlvf0TqIumNDyDCugOhx8+xc78NFLr8UYNneunku03gTJGCgimiCILEjP2XIs3nTOFjx9nUUGS2XKz8rYDD+9REUSghI20CZ7dcsMjVTAI0yPt7Ps+dAVf0BIYuWRfUXCwGQPK2tA0kG2rcMsrUXcYh+b9EK5pxT+DLlaIo+hhxiM/wsffM8F+ItT16qIIKs8FRpeh+PzPT2qQwx5sBs1Hh+59Ee45pb7mAsHyGqZjnoIi5nuKzbRBfDQxzTcgztw6ikbcTa9cctJhzE/VhR/YReFbjBlqct6ivAABab8SpTOekaKaqmlNLaQ0F22jfm48Xc7GfakXughavpqbrGLwzj68DVYRczkGSNxxDBkbmQ5U+krqfe9hMRXzUjJDE/GGlhWXNRiNz2UzeBh9vumm+8j0/01tpGJgqWHVRhG3c/gs85lAiLlHsayvgJBraI1M4oKw+NxJBfHbDoKb33RehI4KeMjDJJ8qJ9Ko8gzMgZrQMspKb10cg+bk/v9bje2PVJlWuqnzfQ2ZsftGMWh88yHvn7myceojFBku3lNgKe1yE/KyO80iPD8fPIomDK7JN2XOli+J9sshYDIYzJVDoC0Rn1hTlFmO7eQSiGVvaUyuc66oFprINe/AjFDo9z3sTmMx5cqnUkmj9RjLdTmrMfIbxUFrDmtcsDhO6gHBvYcDLD94Sp20m3Haz78MMO+fTuQZ4E9WMnj8FVDOHr9ahy5biVWDcviAZUoIHUlCwMOnZoliDJtph6Bt2JGFdEMLUfKKuaoWAypc4aOw+jSQ2a98FBvPFT2eikdxkFFjFQmCkgAE94nlXVjfkUWDRciCkzpkVgbIVRgChVX/eYbeYxQzvWUQ5TxeNLZFeIpMJSJ8/8okI1NDnUmXZWEOLfU2B9Z15SpLJkTtahYx+qWURRN6gvmwHakIZYSyWFO5IeSPVkQIWkQNBLBjjHwbhybhFdDlh5UAwwXvEfGckqTc7MN834BSwDNafGeEp2YkAL5TT+SPhri7LATSVE9ZHb9/XHSpZKMkY0cn+meYIp1iPBlm+miTUfq6/yk1LzSBZODZr1CLkhdm8iz/lKNyg1NyZ+Cbi/pDYbfSlAoMCyyGZ8JvVJkDhLvlxl1QUmXWnRuCaiNQ5UnIl2T3XpxQlACpgiJ1XKye8ivbcpPtslA5GcNM1q6/IybfCIE6FFt0ghiIq+xfZ25VKZH5SNJqyJidBaNQ02t0VBkZkaeudFZEqjdglmifoqul2R/5A5/4qGtALb89pGaIuycEo9kNcxDNqn2TnOqbub4OmAyziY0V6FBMTVelh9QEM2xxoujKZjOY9v5Hlf+qG9/IlmTYZZKk8l2DtyX2punSwQgZZHsyPJVT5HvS+hnYfyoJ4uBdcCR7YcKWl6i1DbbH7EXhmKrNGvuslVRnrTsfFuGKIfsefBZP2oMrbYqvqVN+cUf+ZRXpjnZPKi8Xbb7SvOyW0O1pCLNfP2XdrpyqEvOisRr6TgdJ5NdGbyDzJKz+me5xNdS/vQQeThJPd+iwFySRSHzBIgl+XOSJTAXkSyBuYhkCcxFJEtgLiJZAnMRyRKYi0iWwFxEsgTmIpIlMBeRLIG5iGQJzEUkS2AuIlkCcxHJEpiLRoD/B+MvCRKb3VWPAAAAAElFTkSuQmCC;" vertex="1" parent="1">
          <mxGeometry x="333.75" y="177.79" width="82.5" height="62.41" as="geometry" />
        </mxCell>
        <mxCell id="ousbUHaX7JyBU9SVbwSz-12" value="Cadastro Unificado do Paciente" style="text;html=1;align=center;verticalAlign=middle;whiteSpace=wrap;rounded=0;" vertex="1" parent="1">
          <mxGeometry x="310" y="245" width="130" height="30" as="geometry" />
        </mxCell>
        <mxCell id="ousbUHaX7JyBU9SVbwSz-15" value="Gerador local de ficha/senha de atendimento" style="rounded=0;whiteSpace=wrap;html=1;" vertex="1" parent="1">
          <mxGeometry x="610" y="280" width="160" height="80" as="geometry" />
        </mxCell>
        <mxCell id="ousbUHaX7JyBU9SVbwSz-18" value="Triagem Auto." style="whiteSpace=wrap;html=1;aspect=fixed;" vertex="1" parent="1">
          <mxGeometry x="640" y="485" width="100" height="100" as="geometry" />
        </mxCell>
        <mxCell id="ousbUHaX7JyBU9SVbwSz-19" value="" style="sketch=0;points=[[0.015,0.015,0],[0.985,0.015,0],[0.985,0.985,0],[0.015,0.985,0],[0.25,0,0],[0.5,0,0],[0.75,0,0],[1,0.25,0],[1,0.5,0],[1,0.75,0],[0.75,1,0],[0.5,1,0],[0.25,1,0],[0,0.75,0],[0,0.5,0],[0,0.25,0]];verticalLabelPosition=bottom;html=1;verticalAlign=top;aspect=fixed;align=center;pointerEvents=1;shape=mxgraph.cisco19.rect;prIcon=net_mgmt_appliance;fillColor=#FAFAFA;strokeColor=#005073;" vertex="1" parent="1">
          <mxGeometry x="333.75" y="570" width="50" height="50" as="geometry" />
        </mxCell>
        <mxCell id="ousbUHaX7JyBU9SVbwSz-20" value="" style="shape=image;html=1;verticalAlign=top;verticalLabelPosition=bottom;labelBackgroundColor=#ffffff;imageAspect=0;aspect=fixed;image=https://cdn0.iconfinder.com/data/icons/google-material-design-3-0/48/ic_fingerprint_48px-128.png" vertex="1" parent="1">
          <mxGeometry x="383.75" y="561" width="68" height="68" as="geometry" />
        </mxCell>
      </root>
    </mxGraphModel>
  </diagram>
</mxfile>
